<?xml version="1.0" encoding="UTF-8" standalone="no"?>
<svg width="800" height="800" viewBox="0 0 800 800" xmlns="http://www.w3.org/2000/svg">
  <style>
    .circuit-line {
      stroke: #5773ff;
      stroke-width: 2;
      stroke-opacity: 0.3;
      fill: none;
    }
    .circuit-dot {
      fill: #00f0ff;
      fill-opacity: 0.5;
    }
    .circuit-node {
      fill: #5773ff;
      fill-opacity: 0.3;
    }
  </style>
  
  <!-- Grid of dots -->
  <g id="dots">
    <!-- Generate a 10x10 grid of dots -->
    <g id="dot-grid">
      <!-- Row 1 -->
      <circle class="circuit-dot" cx="80" cy="80" r="4" />
      <circle class="circuit-dot" cx="160" cy="80" r="4" />
      <circle class="circuit-dot" cx="240" cy="80" r="4" />
      <circle class="circuit-dot" cx="320" cy="80" r="4" />
      <circle class="circuit-dot" cx="400" cy="80" r="4" />
      <circle class="circuit-dot" cx="480" cy="80" r="4" />
      <circle class="circuit-dot" cx="560" cy="80" r="4" />
      <circle class="circuit-dot" cx="640" cy="80" r="4" />
      <circle class="circuit-dot" cx="720" cy="80" r="4" />
      
      <!-- Row 2 -->
      <circle class="circuit-dot" cx="80" cy="160" r="4" />
      <circle class="circuit-dot" cx="160" cy="160" r="4" />
      <circle class="circuit-dot" cx="240" cy="160" r="4" />
      <circle class="circuit-dot" cx="320" cy="160" r="4" />
      <circle class="circuit-dot" cx="400" cy="160" r="4" />
      <circle class="circuit-dot" cx="480" cy="160" r="4" />
      <circle class="circuit-dot" cx="560" cy="160" r="4" />
      <circle class="circuit-dot" cx="640" cy="160" r="4" />
      <circle class="circuit-dot" cx="720" cy="160" r="4" />
      
      <!-- Row 3 -->
      <circle class="circuit-dot" cx="80" cy="240" r="4" />
      <circle class="circuit-dot" cx="160" cy="240" r="4" />
      <circle class="circuit-dot" cx="240" cy="240" r="4" />
      <circle class="circuit-dot" cx="320" cy="240" r="4" />
      <circle class="circuit-dot" cx="400" cy="240" r="4" />
      <circle class="circuit-dot" cx="480" cy="240" r="4" />
      <circle class="circuit-dot" cx="560" cy="240" r="4" />
      <circle class="circuit-dot" cx="640" cy="240" r="4" />
      <circle class="circuit-dot" cx="720" cy="240" r="4" />
      
      <!-- Row 4 -->
      <circle class="circuit-dot" cx="80" cy="320" r="4" />
      <circle class="circuit-dot" cx="160" cy="320" r="4" />
      <circle class="circuit-dot" cx="240" cy="320" r="4" />
      <circle class="circuit-dot" cx="320" cy="320" r="4" />
      <circle class="circuit-dot" cx="400" cy="320" r="4" />
      <circle class="circuit-dot" cx="480" cy="320" r="4" />
      <circle class="circuit-dot" cx="560" cy="320" r="4" />
      <circle class="circuit-dot" cx="640" cy="320" r="4" />
      <circle class="circuit-dot" cx="720" cy="320" r="4" />
      
      <!-- Row 5 -->
      <circle class="circuit-dot" cx="80" cy="400" r="4" />
      <circle class="circuit-dot" cx="160" cy="400" r="4" />
      <circle class="circuit-dot" cx="240" cy="400" r="4" />
      <circle class="circuit-dot" cx="320" cy="400" r="4" />
      <circle class="circuit-dot" cx="400" cy="400" r="4" />
      <circle class="circuit-dot" cx="480" cy="400" r="4" />
      <circle class="circuit-dot" cx="560" cy="400" r="4" />
      <circle class="circuit-dot" cx="640" cy="400" r="4" />
      <circle class="circuit-dot" cx="720" cy="400" r="4" />
      
      <!-- Row 6 -->
      <circle class="circuit-dot" cx="80" cy="480" r="4" />
      <circle class="circuit-dot" cx="160" cy="480" r="4" />
      <circle class="circuit-dot" cx="240" cy="480" r="4" />
      <circle class="circuit-dot" cx="320" cy="480" r="4" />
      <circle class="circuit-dot" cx="400" cy="480" r="4" />
      <circle class="circuit-dot" cx="480" cy="480" r="4" />
      <circle class="circuit-dot" cx="560" cy="480" r="4" />
      <circle class="circuit-dot" cx="640" cy="480" r="4" />
      <circle class="circuit-dot" cx="720" cy="480" r="4" />
      
      <!-- Row 7 -->
      <circle class="circuit-dot" cx="80" cy="560" r="4" />
      <circle class="circuit-dot" cx="160" cy="560" r="4" />
      <circle class="circuit-dot" cx="240" cy="560" r="4" />
      <circle class="circuit-dot" cx="320" cy="560" r="4" />
      <circle class="circuit-dot" cx="400" cy="560" r="4" />
      <circle class="circuit-dot" cx="480" cy="560" r="4" />
      <circle class="circuit-dot" cx="560" cy="560" r="4" />
      <circle class="circuit-dot" cx="640" cy="560" r="4" />
      <circle class="circuit-dot" cx="720" cy="560" r="4" />
      
      <!-- Row 8 -->
      <circle class="circuit-dot" cx="80" cy="640" r="4" />
      <circle class="circuit-dot" cx="160" cy="640" r="4" />
      <circle class="circuit-dot" cx="240" cy="640" r="4" />
      <circle class="circuit-dot" cx="320" cy="640" r="4" />
      <circle class="circuit-dot" cx="400" cy="640" r="4" />
      <circle class="circuit-dot" cx="480" cy="640" r="4" />
      <circle class="circuit-dot" cx="560" cy="640" r="4" />
      <circle class="circuit-dot" cx="640" cy="640" r="4" />
      <circle class="circuit-dot" cx="720" cy="640" r="4" />
      
      <!-- Row 9 -->
      <circle class="circuit-dot" cx="80" cy="720" r="4" />
      <circle class="circuit-dot" cx="160" cy="720" r="4" />
      <circle class="circuit-dot" cx="240" cy="720" r="4" />
      <circle class="circuit-dot" cx="320" cy="720" r="4" />
      <circle class="circuit-dot" cx="400" cy="720" r="4" />
      <circle class="circuit-dot" cx="480" cy="720" r="4" />
      <circle class="circuit-dot" cx="560" cy="720" r="4" />
      <circle class="circuit-dot" cx="640" cy="720" r="4" />
      <circle class="circuit-dot" cx="720" cy="720" r="4" />
    </g>
  </g>
  
  <!-- Circuit lines -->
  <g id="lines">
    <!-- Horizontal lines -->
    <path class="circuit-line" d="M80,80 H720" />
    <path class="circuit-line" d="M80,160 H400 H560 H720" />
    <path class="circuit-line" d="M80,240 H240 H480 H720" />
    <path class="circuit-line" d="M80,320 H320 H560 H720" />
    <path class="circuit-line" d="M80,400 H240 H400 H640 H720" />
    <path class="circuit-line" d="M80,480 H320 H480 H720" />
    <path class="circuit-line" d="M80,560 H240 H560 H720" />
    <path class="circuit-line" d="M80,640 H400 H640 H720" />
    <path class="circuit-line" d="M80,720 H720" />
    
    <!-- Vertical lines -->
    <path class="circuit-line" d="M80,80 V720" />
    <path class="circuit-line" d="M160,80 V240 V480 V720" />
    <path class="circuit-line" d="M240,80 V320 V560 V720" />
    <path class="circuit-line" d="M320,80 V240 V400 V640 V720" />
    <path class="circuit-line" d="M400,80 V320 V560 V720" />
    <path class="circuit-line" d="M480,80 V240 V480 V720" />
    <path class="circuit-line" d="M560,80 V320 V560 V720" />
    <path class="circuit-line" d="M640,80 V240 V400 V640 V720" />
    <path class="circuit-line" d="M720,80 V720" />
    
    <!-- Diagonal lines -->
    <path class="circuit-line" d="M160,160 L240,240" />
    <path class="circuit-line" d="M320,240 L400,320" />
    <path class="circuit-line" d="M480,320 L560,400" />
    <path class="circuit-line" d="M560,160 L640,240" />
    <path class="circuit-line" d="M240,480 L320,560" />
    <path class="circuit-line" d="M400,480 L480,560" />
    <path class="circuit-line" d="M560,560 L640,640" />
  </g>
  
  <!-- Circuit nodes -->
  <g id="nodes">
    <circle class="circuit-node" cx="160" cy="160" r="8" />
    <circle class="circuit-node" cx="320" cy="240" r="8" />
    <circle class="circuit-node" cx="480" cy="320" r="8" />
    <circle class="circuit-node" cx="640" cy="240" r="8" />
    <circle class="circuit-node" cx="240" cy="480" r="8" />
    <circle class="circuit-node" cx="400" cy="400" r="8" />
    <circle class="circuit-node" cx="560" cy="560" r="8" />
    <circle class="circuit-node" cx="320" cy="640" r="8" />
  </g>
</svg>
