<?xml version="1.0" encoding="UTF-8"?>
<svg width="24px" height="24px" viewBox="0 0 24 24" version="1.1" xmlns="http://www.w3.org/2000/svg">
    <g stroke="none" stroke-width="1" fill="none" fill-rule="evenodd">
        <g fill="#FFFFFF">
            <!-- Robot head -->
            <path d="M12,2 C15.3137,2 18,4.6863 18,8 L18,10 C18,13.3137 15.3137,16 12,16 C8.6863,16 6,13.3137 6,10 L6,8 C6,4.6863 8.6863,2 12,2 Z" fill-rule="nonzero"></path>
            <!-- Robot eyes -->
            <circle cx="9" cy="9" r="1.5"></circle>
            <circle cx="15" cy="9" r="1.5"></circle>
            <!-- Robot mouth -->
            <rect x="9" y="12" width="6" height="1.5" rx="0.75"></rect>
            <!-- Robot antenna -->
            <rect x="11.25" y="1" width="1.5" height="2" rx="0.75"></rect>
            <!-- Robot body -->
            <path d="M8,16 L16,16 L16,20 C16,21.1046 15.1046,22 14,22 L10,22 C8.8954,22 8,21.1046 8,20 L8,16 Z" fill-rule="nonzero"></path>
            <!-- Robot arms -->
            <rect x="5" y="16" width="3" height="4" rx="1"></rect>
            <rect x="16" y="16" width="3" height="4" rx="1"></rect>
        </g>
    </g>
</svg>
